:version 1.10
:name ASF
:units
  mass 1
  length 1
  angle deg
:documentation
  ASF file generated by Kaydara
:root
  axis xyz
  order  tx ty tz rx ry rz
  position 0 0 0
  orientation 0 0 0
:bonedata
  begin
    id 1
    name RightUpLegDummy
    direction -1 2.30186e-007 8.31532e-007
    length 4.46685
    axis 0 0 0 xyz
  end
  begin
    id 2
    name RightUpLeg
    direction -2.30187e-007 -1 1.24343e-010
    length 16.4045
    axis -3.49089 -0.000906625 0.000286804 xyz
    dof rx ry rz
  end
  begin
    id 3
    name RightLeg
    direction -2.30181e-007 -1 -4.17157e-009
    length 17.5097
    axis 3.68512 0.0193738 -0.131023 xyz
    dof rx ry rz
  end
  begin
    id 4
    name RightFoot
    direction 8.31421e-007 -4.51202e-011 1
    length 6.49508
    axis 4.81691e-005 -0.120479 -0.188788 xyz
    dof rx ry rz
  end
  begin
    id 5
    name RightToes
    direction 0.00124746 -0.014064 0.9999
    length 3.85082
    axis 0.000481921 0.542163 -0.142578 xyz
    dof rx ry rz
  end
  begin
    id 6
    name SpineDummy
    direction 0.0717043 0.9409 -0.331007
    length 10.0032
    axis 0 0 0 xyz
  end
  begin
    id 7
    name Spine
    direction 2.30186e-007 1 4.58806e-011
    length 9.84055
    axis -0.001389 0.000121418 2.40972e-006 xyz
    dof rx ry rz
  end
  begin
    id 8
    name Spine1
    direction 0 0 0
    length 0
    axis -0.001389 0.000121451 1.30017e-006 xyz
    dof rx ry rz
  end
  begin
    id 9
    name HEadDummy
    direction -0.00347485 0.950688 -0.310128
    length 8.00997
    axis -0.001389 0.000121451 1.30017e-006 xyz
  end
  begin
    id 10
    name HEad
    direction -0.0222688 0.980941 0.193023
    length 5.12695
    axis -0.001389 0.000121451 1.30017e-006 xyz
    dof rx ry rz
  end
  begin
    id 11
    name LeftShoulder1Dummy
    direction 0.988871 0.146793 -0.0242004
    length 3.5792
    axis -0.001389 0.000121451 1.30017e-006 xyz
  end
  begin
    id 12
    name LeftShoulder1
    direction 0.993832 0.108932 0.020779
    length 4.16823
    axis -0.001389 0.000121451 1.30017e-006 xyz
    dof rx ry rz
  end
  begin
    id 13
    name LeftArm
    direction 1 3.44807e-006 -8.31404e-007
    length 9.91437
    axis -23.1894 0.134784 0.967509 xyz
    dof rx ry rz
  end
  begin
    id 14
    name LeftForeArm
    direction 1 3.44842e-006 -8.31581e-007
    length 9.08575
    axis -9.91835 -0.06569 -0.177793 xyz
    dof rx ry rz
  end
  begin
    id 15
    name LeftHand
    direction 0.992938 -0.0411636 0.11126
    length 5.32135
    axis -0.00960232 -0.00340091 0.185173 xyz
    dof rx ry rz
  end
  begin
    id 16
    name RightShoulderDummy
    direction -0.988871 0.146793 -0.0241962
    length 3.5792
    axis -0.001389 0.000121451 1.30017e-006 xyz
  end
  begin
    id 17
    name RightShoulder
    direction -0.993832 0.108933 0.0207785
    length 4.16823
    axis 0.215806 0.000203643 -0.0068026 xyz
    dof rx ry rz
  end
  begin
    id 18
    name RightArm
    direction -1 3.90912e-006 8.31284e-007
    length 9.91437
    axis -23.2009 -0.134239 -0.964101 xyz
    dof rx ry rz
  end
  begin
    id 19
    name RightForeArm
    direction -1 3.90882e-006 8.31502e-007
    length 9.08575
    axis -9.92322 0.0658061 0.178867 xyz
    dof rx ry rz
  end
  begin
    id 20
    name RightHand
    direction -0.992843 -0.0414603 0.112003
    length 5.28593
    axis -0.00960638 0.00330671 -0.185228 xyz
    dof rx ry rz
  end
  begin
    id 21
    name LeftUpLegDummy
    direction 1 -2.30186e-007 -8.31532e-007
    length 4.46685
    axis 0 0 0 xyz
  end
  begin
    id 22
    name LeftUpLeg
    direction -2.30187e-007 -1 6.00931e-010
    length 16.4045
    axis -3.48766 0.00143442 -0.000524262 xyz
    dof rx ry rz
  end
  begin
    id 23
    name LeftLeg
    direction -2.30187e-007 -1 1.6669e-009
    length 17.5097
    axis 3.68178 -0.00654042 -0.000285133 xyz
    dof rx ry rz
  end
  begin
    id 24
    name LeftFoot
    direction 8.31532e-007 -4.54478e-011 1
    length 6.49508
    axis 1.87233e-006 4.66016e-005 -8.6538e-006 xyz
    dof rx ry rz
  end
  begin
    id 25
    name LeftToes
    direction 0.00818058 -0.00485161 0.999955
    length 3.85048
    axis 1.06247e-005 4.65869e-005 -8.65513e-006 xyz
    dof rx ry rz
  end
:hierarchy
  begin
    root RightUpLegDummy SpineDummy LeftUpLegDummy
    RightUpLegDummy RightUpLeg
    RightUpLeg RightLeg
    RightLeg RightFoot
    RightFoot RightToes
    SpineDummy Spine
    Spine Spine1
    Spine1 HEadDummy LeftShoulder1Dummy RightShoulderDummy
    HEadDummy HEad
    LeftShoulder1Dummy LeftShoulder1
    LeftShoulder1 LeftArm
    LeftArm LeftForeArm
    LeftForeArm LeftHand
    RightShoulderDummy RightShoulder
    RightShoulder RightArm
    RightArm RightForeArm
    RightForeArm RightHand
    LeftUpLegDummy LeftUpLeg
    LeftUpLeg LeftLeg
    LeftLeg LeftFoot
    LeftFoot LeftToes
  end

:SAMPLES-PER-SECOND 30
:FULLY-SPECIFIED
:DEGREES
16
root  -64.2476 32.7826 25.5534 1.15247 54.1631 0.786477
RightUpLeg  8.55299 -18.4927 -16.8249
RightLeg  9.61392 6.23859 0.648738
RightFoot  -0.413836 -0.00120331 0.080415
RightToes  -43.5832 -0.248942 -0.336417
Spine  4.13563 -1.23635 0.149956
Spine1  7.91863 -2.2744 0.0535899
HEad  29.0367 48.4921 -6.74499
LeftShoulder1  0 -2.42657e-020 -4.95415e-022
LeftArm  -48.9908 9.12828 -77.2313
LeftForeArm  64.3069 -12.5402 -2.19099
LeftHand  0.607144 -10.5927 -6.9167
RightShoulder  0 2.42657e-020 1.07489e-018
RightArm  -64.3471 -21.776 89.8898
RightForeArm  -25.3273 65.1745 22.2884
RightHand  1.91777 11.5178 19.2264
LeftUpLeg  -19.2646 15.0529 8.37922
LeftLeg  29.3352 -10.3799 -4.94912
LeftFoot  4.48856 0.0372229 -0.95127
LeftToes  -30.4718 2.01279e-006 2.21547e-008
17
root  -64.2336 32.7764 25.6093 1.03139 54.5294 0.952606
RightUpLeg  8.98049 -18.7937 -17.0514
RightLeg  9.76779 6.25207 0.667066
RightFoot  -0.608733 -0.00198777 0.0583274
RightToes  -43.4048 -0.245835 -0.335817
Spine  4.11541 -1.24705 0.165249
Spine1  7.88858 -2.29562 0.0816855
HEad  28.9194 47.7712 -6.83442
LeftShoulder1  0 -2.42657e-020 -4.95415e-022
LeftArm  -49.4218 9.39006 -77.3873
LeftForeArm  64.5724 -12.1802 -2.1241
LeftHand  0.591243 -10.5004 -6.80189
RightShoulder  0 2.42657e-020 1.07489e-018
RightArm  -65.1409 -22.0929 89.8634
RightForeArm  -25.3426 64.9988 22.1006
RightHand  1.94464 11.6422 19.2837
LeftUpLeg  -18.9307 14.5447 8.39442
LeftLeg  29.1449 -10.3199 -4.8794
LeftFoot  4.52087 0.0377393 -0.951027
LeftToes  -30.5731 2.01279e-006 2.21547e-008
18
root  -64.2179 32.7594 25.6668 0.747641 54.8514 1.10633
RightUpLeg  9.45277 -18.652 -17.1921
RightLeg  10.0466 5.90059 0.658726
RightFoot  -0.920746 -0.00275815 0.0343176
RightToes  -43.1483 -0.24289 -0.334983
Spine  4.12961 -1.37052 0.246663
Spine1  7.91807 -2.54188 0.237344
HEad  29.2274 46.6417 -6.74853
LeftShoulder1  0 -2.42657e-020 -4.95415e-022
LeftArm  -50.4772 9.74217 -77.654
LeftForeArm  65.083 -11.8596 -2.06403
LeftHand  0.592964 -10.5033 -6.81883
RightShoulder  0 2.42657e-020 1.07489e-018
RightArm  -65.3467 -22.1903 89.3833
RightForeArm  -25.5795 64.6753 21.7603
RightHand  1.96099 11.8167 19.1612
LeftUpLeg  -18.5342 14.2387 8.45855
LeftLeg  29.1685 -10.3932 -4.91867
LeftFoot  4.49254 0.0381925 -0.949959
LeftToes  -30.8365 2.01279e-006 2.21547e-008
19
root  -64.2042 32.7524 25.7109 0.524878 55.1386 1.24253
RightUpLeg  9.80594 -18.5646 -17.3041
RightLeg  10.3343 5.56782 0.649992
RightFoot  -1.21099 -0.00387331 0.0110529
RightToes  -42.7532 -0.240842 -0.333947
Spine  4.09689 -1.46026 0.279679
Spine1  7.86152 -2.72103 0.295211
HEad  29.7045 45.1117 -6.18813
LeftShoulder1  0 -2.42657e-020 -4.95415e-022
LeftArm  -50.9476 10.0801 -77.6742
LeftForeArm  65.388 -11.6387 -2.02282
LeftHand  0.595035 -10.4102 -6.82293
RightShoulder  0 2.42657e-020 1.07489e-018
RightArm  -66.1468 -22.2209 89.2243
RightForeArm  -25.6566 64.2735 21.3513
RightHand  1.94449 11.5875 19.3706
LeftUpLeg  -18.2025 14.0295 8.49472
LeftLeg  29.158 -10.5195 -4.97509
LeftFoot  4.50811 0.0395411 -0.96296
LeftToes  -30.8626 2.01279e-006 2.21547e-008
20
root  -64.1968 32.7487 25.7511 0.322593 55.349 1.31188
RightUpLeg  10.0602 -18.5188 -17.3646
RightLeg  10.5872 5.3456 0.648028
RightFoot  -1.39745 -0.00442762 -0.00275752
RightToes  -42.5117 -0.239579 -0.33274
Spine  4.07327 -1.52185 0.334088
Spine1  7.82352 -2.84741 0.398265
HEad  30.1787 43.5559 -5.59046
LeftShoulder1  0 -2.42657e-020 -4.95415e-022
LeftArm  -51.2175 10.3779 -77.6626
LeftForeArm  65.5274 -11.5639 -2.0088
LeftHand  0.591609 -10.436 -6.79123
RightShoulder  0 2.42657e-020 1.07489e-018
RightArm  -66.3173 -22.4508 89.0454
RightForeArm  -26.3121 64.2099 21.2831
RightHand  1.90249 12.0339 18.2838
LeftUpLeg  -17.8987 13.8903 8.55655
LeftLeg  29.0629 -10.6259 -5.00317
LeftFoot  4.5301 0.0408033 -0.974776
LeftToes  -30.9425 2.01279e-006 2.21547e-008
21
root  -64.1953 32.7545 25.7968 0.0362058 55.474 1.35794
RightUpLeg  10.416 -18.5646 -17.4672
RightLeg  10.7265 5.32133 0.658202
RightFoot  -1.50179 -0.00488511 -0.0179836
RightToes  -42.4215 -0.238495 -0.331394
Spine  4.09097 -1.4865 0.323161
Spine1  7.87073 -2.77743 0.362413
HEad  30.3626 42.0626 -4.96416
LeftShoulder1  0 -2.42657e-020 -4.95415e-022
LeftArm  -50.8981 10.5109 -77.349
LeftForeArm  65.5098 -11.6422 -2.02316
LeftHand  0.590816 -10.4244 -6.81765
RightShoulder  0 2.42657e-020 1.07489e-018
RightArm  -67.4499 -22.4436 89.1359
RightForeArm  -25.981 63.7864 20.8708
RightHand  1.91516 11.704 18.9047
LeftUpLeg  -17.447 13.9598 8.67253
LeftLeg  28.8764 -10.8775 -5.07679
LeftFoot  4.57991 0.0434844 -1.0088
LeftToes  -30.8835 2.01279e-006 2.21547e-008
22
root  -64.202 32.76 25.8334 -0.00116968 55.4584 1.50279
RightUpLeg  10.4652 -18.4068 -17.501
RightLeg  10.9445 5.17107 0.659616
RightFoot  -1.6439 -0.00595121 -0.0234851
RightToes  -42.412 -0.237579 -0.32994
Spine  4.10489 -1.64901 0.434397
Spine1  7.90333 -3.10943 0.582133
HEad  30.0884 41.4926 -5.2929
LeftShoulder1  0 -2.42657e-020 -4.95415e-022
LeftArm  -51.3109 10.9275 -77.3671
LeftForeArm  65.3776 -11.7666 -2.04627
LeftHand  0.586539 -10.5314 -6.78004
RightShoulder  0 2.42657e-020 1.07489e-018
RightArm  -67.6482 -22.5342 88.8268
RightForeArm  -25.1289 63.857 20.9449
RightHand  2.06249 11.9238 19.9402
LeftUpLeg  -17.0861 14.0488 8.70335
LeftLeg  28.5609 -11.0305 -5.07391
LeftFoot  4.71057 0.0462374 -1.0441
LeftToes  -31.1965 2.01279e-006 2.21547e-008
23
root  -64.2233 32.7691 25.8632 -0.012447 55.5407 1.56895
RightUpLeg  10.5698 -18.3716 -17.4764
RightLeg  10.9314 5.05914 0.644226
RightFoot  -1.68599 -0.00704805 -0.0280483
RightToes  -42.4685 -0.236822 -0.328408
Spine  4.09583 -1.7107 0.46722
Spine1  7.89622 -3.24457 0.654572
HEad  29.9719 40.7178 -5.12185
LeftShoulder1  0 -2.42657e-020 -4.95415e-022
LeftArm  -51.1369 11.0281 -77.0378
LeftForeArm  65.2859 -11.8168 -2.0557
LeftHand  0.59029 -10.4989 -6.7925
RightShoulder  0 2.42657e-020 1.07489e-018
RightArm  -68.7287 -22.5646 89.0298
RightForeArm  -24.8068 63.7284 20.8232
RightHand  2.17509 12.0516 20.7709
LeftUpLeg  -16.8885 13.9004 8.73382
LeftLeg  28.264 -11.0447 -5.01189
LeftFoot  4.83571 0.0483125 -1.06902
LeftToes  -31.2267 2.01279e-006 2.21547e-008
24
root  -64.2507 32.7826 25.8902 0.00157472 55.6942 1.6364
RightUpLeg  10.6799 -18.3617 -17.4324
RightLeg  10.8804 4.90259 0.619945
RightFoot  -1.74788 -0.00789671 -0.035818
RightToes  -42.0765 -0.236214 -0.326832
Spine  4.07629 -1.68301 0.43126
Spine1  7.86576 -3.19517 0.583366
HEad  29.9291 40.0092 -4.58216
LeftShoulder1  0 -2.42657e-020 -4.95415e-022
LeftArm  -50.4776 10.9289 -76.4482
LeftForeArm  65.2209 -11.8831 -2.068
LeftHand  0.601123 -10.5313 -6.88988
RightShoulder  0 2.42657e-020 1.07489e-018
RightArm  -69.6712 -22.799 89.2747
RightForeArm  -24.7937 63.4419 20.5515
RightHand  2.20997 12.1912 20.8569
LeftUpLeg  -16.7123 13.7536 8.74559
LeftLeg  27.8954 -11.0997 -4.95143
LeftFoot  5.04447 0.0519949 -1.11909
LeftToes  -31.3867 2.01279e-006 2.21547e-008
25
root  -64.274 32.7833 25.9096 0.113317 55.8252 1.78009
RightUpLeg  10.6076 -18.3026 -17.4223
RightLeg  11.0962 4.71506 0.614328
RightFoot  -1.91797 -0.00905274 -0.0379816
RightToes  -41.9129 -0.235746 -0.325241
Spine  4.12209 -1.86637 0.548632
Spine1  7.94797 -3.56752 0.814603
HEad  29.3954 40.2058 -4.91277
LeftShoulder1  0 -2.42657e-020 -4.95415e-022
LeftArm  -50.9692 10.9241 -76.396
LeftForeArm  65.2681 -11.9155 -2.07382
LeftHand  0.592421 -10.4495 -6.84623
RightShoulder  0 2.42657e-020 1.07489e-018
RightArm  -69.3622 -22.6698 88.7771
RightForeArm  -26.2025 63.626 20.7157
RightHand  1.96993 11.9176 19.0872
LeftUpLeg  -16.6306 13.6532 8.70027
LeftLeg  27.6589 -11.1748 -4.92966
LeftFoot  5.17541 0.0544011 -1.14947
LeftToes  -31.3901 2.01279e-006 2.21547e-008
26
root  -64.3048 32.7963 25.9328 0.185769 55.9584 1.84732
RightUpLeg  10.5976 -18.3835 -17.3892
RightLeg  11.1416 4.6335 0.607461
RightFoot  -1.94419 -0.0101446 -0.0401219
RightToes  -41.9133 -0.235407 -0.323668
Spine  4.11993 -1.97189 0.579631
Spine1  7.94985 -3.79639 0.897107
HEad  28.8072 40.3755 -4.73409
LeftShoulder1  0 -2.42657e-020 -4.95415e-022
LeftArm  -50.9467 10.8355 -76.0459
LeftForeArm  65.2521 -11.9367 -2.07775
LeftHand  0.590257 -10.4734 -6.80785
RightShoulder  0 2.42657e-020 1.07489e-018
RightArm  -70.7305 -22.7952 89.061
RightForeArm  -25.2335 63.6182 20.715
RightHand  2.28647 12.5434 20.9639
LeftUpLeg  -16.5352 13.5931 8.69537
LeftLeg  27.3249 -11.2732 -4.89482
LeftFoot  5.39767 0.0583569 -1.20411
LeftToes  -31.5538 2.01279e-006 2.21547e-008
27
root  -64.334 32.8049 25.9606 0.26398 56.0831 1.87956
RightUpLeg  10.5518 -18.5815 -17.364
RightLeg  11.212 4.66865 0.617872
RightFoot  -1.92433 -0.0113035 -0.0400143
RightToes  -42.0183 -0.235187 -0.322143
Spine  4.14983 -2.06388 0.637923
Spine1  8.00544 -3.98391 1.00012
HEad  28.083 40.6574 -4.68393
LeftShoulder1  0 -2.42657e-020 -4.95415e-022
LeftArm  -50.7332 10.7158 -75.7853
LeftForeArm  65.0703 -12.0977 -2.10774
LeftHand  0.597539 -10.4738 -6.88685
RightShoulder  0 2.42657e-020 1.07489e-018
RightArm  -69.7415 -23.3529 88.6681
RightForeArm  -27.1219 64.146 21.2138
RightHand  2.01978 12.5804 18.5511
LeftUpLeg  -16.5032 13.6394 8.713
LeftLeg  27.0666 -11.4519 -4.91037
LeftFoot  5.58422 0.0625628 -1.26279
LeftToes  -31.6852 2.01279e-006 2.21547e-008
28
root  -64.362 32.8211 25.9858 0.406612 56.205 1.86535
RightUpLeg  10.4751 -18.5498 -17.1768
RightLeg  11.073 4.42428 0.574751
RightFoot  -1.79264 -0.013326 -0.0251071
RightToes  -41.9206 -0.235078 -0.320698
Spine  4.11012 -2.18654 0.673362
Spine1  7.93027 -4.24149 1.07884
HEad  27.6288 41.019 -4.37202
LeftShoulder1  0 -2.42657e-020 -4.95415e-022
LeftArm  -50.1841 10.7007 -75.442
LeftForeArm  64.677 -12.2363 -2.13416
LeftHand  0.599402 -10.4903 -6.89677
RightShoulder  0 2.42657e-020 1.07489e-018
RightArm  -71.3863 -22.9656 88.9516
RightForeArm  -26.6345 63.8769 20.9536
RightHand  2.07467 12.1057 19.7612
LeftUpLeg  -16.5886 13.5763 8.71936
LeftLeg  26.8162 -11.4938 -4.86927
LeftFoot  5.77967 0.0658718 -1.30769
LeftToes  -31.5716 2.01279e-006 2.21547e-008
29
root  -64.3735 32.8358 26.0148 0.478893 56.3165 1.84163
RightUpLeg  10.4621 -18.5993 -17.0654
RightLeg  10.9918 4.28943 0.551132
RightFoot  -1.62867 -0.0151676 -0.0114289
RightToes  -42.1608 -0.23507 -0.319364
Spine  4.10159 -2.28945 0.724398
Spine1  7.91487 -4.46358 1.19481
HEad  27.325 41.2506 -4.18754
LeftShoulder1  0 -2.42657e-020 -4.95415e-022
LeftArm  -49.7676 10.6276 -75.2351
LeftForeArm  64.4434 -12.4675 -2.17727
LeftHand  0.620305 -10.5345 -7.09545
RightShoulder  0 2.42657e-020 1.07489e-018
RightArm  -71.5057 -23.5144 88.7849
RightForeArm  -25.63 64.1273 21.206
RightHand  2.31109 12.7693 20.8174
LeftUpLeg  -16.6071 13.4199 8.7326
LeftLeg  26.6379 -11.6641 -4.89777
LeftFoot  5.91561 0.0694018 -1.35619
LeftToes  -29.7328 2.01279e-006 2.21547e-008
